<svg width="20" height="21" viewBox="0 0 20 21" fill="none" xmlns="http://www.w3.org/2000/svg">
<g filter="url(#filter0_i_15046_12204)">
<path d="M8 1.45353C9.23761 0.738997 10.7624 0.738997 12 1.45353L16.6603 4.14413C17.8979 4.85866 18.6603 6.17917 18.6603 7.60823V12.9894C18.6603 14.4185 17.8979 15.739 16.6603 16.4535L12 19.1441C10.7624 19.8587 9.2376 19.8587 8 19.1441L3.33975 16.4535C2.10214 15.739 1.33975 14.4185 1.33975 12.9894V7.60823C1.33975 6.17917 2.10214 4.85866 3.33975 4.14413L8 1.45353Z" fill="url(#paint0_radial_15046_12204)"/>
</g>
<path d="M8.3 1.97314C9.35196 1.36579 10.648 1.36579 11.7 1.97314L16.3603 4.66374C17.4122 5.27109 18.0603 6.39353 18.0603 7.60823V12.9894C18.0603 14.2041 17.4122 15.3266 16.3603 15.9339L11.7 18.6245C10.648 19.2319 9.35196 19.2319 8.3 18.6245L3.63975 15.9339C2.58778 15.3266 1.93975 14.2041 1.93975 12.9894V7.60823C1.93975 6.39353 2.58778 5.27109 3.63975 4.66374L8.3 1.97314Z" stroke="#E08D3A" stroke-width="1.2"/>
<g filter="url(#filter1_d_15046_12204)">
<path d="M12.582 7.42508H12.0422V7.39497C12.0422 7.1584 11.8508 6.96484 11.6121 6.96484H8.38615C8.14958 6.96484 7.95603 7.1584 7.95603 7.39497V7.42508H7.41838C7.06137 7.42508 6.77319 7.71541 6.77319 8.07026V8.28748C6.77319 8.98857 7.29364 9.57139 7.97107 9.66817C8.06141 10.4811 8.62917 11.1499 9.38618 11.3865L9.11091 12.1005H10.8895L10.6142 11.3865C11.3733 11.1478 11.939 10.4811 12.0293 9.66817C12.7046 9.57139 13.2272 8.98857 13.2272 8.28748V8.07026C13.2272 7.71541 12.9368 7.42508 12.582 7.42508ZM7.95603 9.22945C7.52591 9.13051 7.20332 8.7477 7.20332 8.28748V8.07026C7.20332 7.95198 7.30008 7.8552 7.41838 7.8552H7.95603V9.22945ZM10.9884 9.14342L10.6529 9.47245L10.7303 9.93484C10.7604 10.1133 10.5755 10.2488 10.4142 10.165L9.99911 9.94559L9.58189 10.165C9.42489 10.2488 9.23779 10.1133 9.2679 9.93484L9.34747 9.47245L9.01198 9.14342C8.88079 9.01652 8.95391 8.79717 9.13026 8.77136L9.59695 8.7047L9.80555 8.28317C9.88512 8.12187 10.1152 8.12187 10.1948 8.28317L10.4034 8.7047L10.868 8.7735C11.0465 8.79932 11.1174 9.01868 10.9884 9.14342ZM12.7971 8.28748C12.7971 8.74556 12.4745 9.13051 12.0422 9.22945V7.8552H12.582C12.7003 7.8552 12.7971 7.95198 12.7971 8.07026V8.28748Z" fill="white"/>
<path d="M12.1219 13.2011H11.7284V13.196C11.7284 12.8278 11.4299 12.5293 11.0617 12.5293H8.93732C8.56911 12.5293 8.27063 12.8278 8.27063 13.196V13.2011H7.87717C7.7583 13.2011 7.66211 13.2973 7.66211 13.4161C7.66211 13.535 7.7583 13.6312 7.87717 13.6312H12.1219C12.2408 13.6312 12.337 13.535 12.337 13.4161C12.337 13.2973 12.2408 13.2011 12.1219 13.2011Z" fill="white"/>
</g>
<defs>
<filter id="filter0_i_15046_12204" x="1.33984" y="0.917969" width="17.3203" height="18.7617" filterUnits="userSpaceOnUse" color-interpolation-filters="sRGB">
<feFlood flood-opacity="0" result="BackgroundImageFix"/>
<feBlend mode="normal" in="SourceGraphic" in2="BackgroundImageFix" result="shape"/>
<feColorMatrix in="SourceAlpha" type="matrix" values="0 0 0 0 0 0 0 0 0 0 0 0 0 0 0 0 0 0 127 0" result="hardAlpha"/>
<feOffset/>
<feGaussianBlur stdDeviation="7"/>
<feComposite in2="hardAlpha" operator="arithmetic" k2="-1" k3="1"/>
<feColorMatrix type="matrix" values="0 0 0 0 0 0 0 0 0 0 0 0 0 0 0 0 0 0 0.18 0"/>
<feBlend mode="normal" in2="shape" result="effect1_innerShadow_15046_12204"/>
</filter>
<filter id="filter1_d_15046_12204" x="4.77319" y="5.96484" width="10.4539" height="10.666" filterUnits="userSpaceOnUse" color-interpolation-filters="sRGB">
<feFlood flood-opacity="0" result="BackgroundImageFix"/>
<feColorMatrix in="SourceAlpha" type="matrix" values="0 0 0 0 0 0 0 0 0 0 0 0 0 0 0 0 0 0 127 0" result="hardAlpha"/>
<feOffset dy="1"/>
<feGaussianBlur stdDeviation="1"/>
<feComposite in2="hardAlpha" operator="out"/>
<feColorMatrix type="matrix" values="0 0 0 0 0 0 0 0 0 0 0 0 0 0 0 0 0 0 0.14 0"/>
<feBlend mode="normal" in2="BackgroundImageFix" result="effect1_dropShadow_15046_12204"/>
<feBlend mode="normal" in="SourceGraphic" in2="effect1_dropShadow_15046_12204" result="shape"/>
</filter>
<radialGradient id="paint0_radial_15046_12204" cx="0" cy="0" r="1" gradientUnits="userSpaceOnUse" gradientTransform="translate(10 10.2988) rotate(90) scale(10.6632)">
<stop stop-color="#FFBA75"/>
<stop offset="1" stop-color="#CC7C2D"/>
</radialGradient>
</defs>
</svg>
