<svg width="28" height="28" viewBox="0 0 28 28" fill="none" xmlns="http://www.w3.org/2000/svg">
<path d="M23.428 4.87005C20.9096 2.35177 17.5613 0.964844 13.9998 0.964844C10.4384 0.964844 7.0901 2.35177 4.57171 4.87005C2.05343 7.38844 0.666504 10.7367 0.666504 14.2982C0.666504 17.8596 2.05343 21.2079 4.57171 23.7263C7.0901 26.2446 10.4384 27.6315 13.9998 27.6315C17.5613 27.6315 20.9096 26.2446 23.428 23.7263C25.9462 21.2079 27.3332 17.8596 27.3332 14.2982C27.3332 10.7367 25.9462 7.38844 23.428 4.87005ZM13.9998 26.069C7.50937 26.069 2.229 20.7886 2.229 14.2982C2.229 7.80771 7.50937 2.52734 13.9998 2.52734C20.4903 2.52734 25.7707 7.80771 25.7707 14.2982C25.7707 20.7886 20.4903 26.069 13.9998 26.069Z" fill="url(#paint0_radial_15883_826)"/>
<path d="M9.98236 7.6575C10.3349 7.72677 10.6774 7.49703 10.7467 7.14417C10.8068 6.83812 11.0776 6.61594 11.3904 6.61594C11.7407 6.61594 12.0277 6.89177 12.0456 7.2376L12.0312 7.35109C11.9694 7.59141 11.8194 7.88599 11.5958 8.20536C10.7875 9.36031 10.3053 9.99177 10.0462 10.331C9.7209 10.7569 9.55767 10.9706 9.66725 11.327C9.73215 11.5381 9.89168 11.6999 10.1052 11.7711C10.191 11.7997 10.2681 11.8254 11.274 11.8254C11.6648 11.8254 12.1961 11.8215 12.9223 11.8124C13.2818 11.8079 13.5696 11.5128 13.5651 11.1532C13.5606 10.7937 13.2669 10.5067 12.9059 10.5104C12.444 10.5162 11.956 10.5202 11.5336 10.5217C11.8099 10.15 12.1793 9.64245 12.6626 8.95193C12.9943 8.47786 13.211 8.02859 13.3065 7.61661C13.3233 7.52536 13.3458 7.36453 13.3486 7.27198C13.3486 6.19229 12.4702 5.3138 11.3904 5.3138C10.4568 5.3138 9.64876 5.97802 9.46897 6.89313C9.3997 7.24604 9.62955 7.58818 9.98236 7.6575Z" fill="url(#paint1_radial_15883_826)"/>
<path d="M16.4446 11.8242C17.6015 11.8242 18.5427 10.883 18.5427 9.72615V7.41187C18.5427 6.255 17.6015 5.3138 16.4446 5.3138C15.2877 5.3138 14.3465 6.255 14.3465 7.41187V9.72615C14.3465 10.883 15.2878 11.8242 16.4446 11.8242ZM15.6486 7.41187C15.6486 6.97297 16.0057 6.61589 16.4446 6.61589C16.8835 6.61589 17.2406 6.97297 17.2406 7.41187V9.72615C17.2406 10.1651 16.8835 10.5221 16.4446 10.5221C16.0057 10.5221 15.6486 10.1651 15.6486 9.72615V7.41187Z" fill="url(#paint2_radial_15883_826)"/>
<path d="M13.606 19.5883C13.2754 19.311 12.7826 19.3542 12.5054 19.6847C12.4509 19.7497 12.3921 19.8105 12.3307 19.8651C12.0158 20.1456 11.6136 20.2878 11.1353 20.2878C9.84291 20.2878 8.7915 19.2364 8.7915 17.944C8.7915 16.6517 9.84291 15.6003 11.1353 15.6003C11.605 15.6003 12.058 15.7385 12.4451 16.0001C12.8026 16.2417 13.2883 16.1476 13.5298 15.7901C13.7714 15.4326 13.6774 14.947 13.3198 14.7054C12.6734 14.2686 11.918 14.0378 11.1353 14.0378C8.98135 14.0378 7.229 15.7901 7.229 17.944C7.229 20.0979 8.98135 21.8503 11.1353 21.8503C11.9961 21.8503 12.7688 21.5673 13.37 21.0318C13.4878 20.9269 13.5996 20.8116 13.7025 20.689C13.9798 20.3583 13.9366 19.8656 13.606 19.5883Z" fill="url(#paint3_radial_15883_826)"/>
<path d="M19.9896 15.0794C19.5825 15.0794 19.2485 15.3909 19.212 15.7885C18.7629 15.5323 18.244 15.3851 17.6911 15.3851C15.9929 15.3851 14.6113 16.7666 14.6113 18.4648C14.6113 20.1631 15.9928 21.5446 17.6911 21.5446C18.244 21.5446 18.7629 21.3974 19.212 21.1412C19.2485 21.5388 19.5825 21.8503 19.9896 21.8503C20.4211 21.8503 20.7709 21.5005 20.7709 21.069V15.8607C20.7709 15.4292 20.4211 15.0794 19.9896 15.0794ZM17.6911 19.9821C16.8545 19.9821 16.1738 19.3015 16.1738 18.4648C16.1738 17.6282 16.8544 16.9476 17.6911 16.9476C18.5277 16.9476 19.2084 17.6282 19.2084 18.4648C19.2084 19.3015 18.5277 19.9821 17.6911 19.9821Z" fill="url(#paint4_radial_15883_826)"/>
<defs>
<radialGradient id="paint0_radial_15883_826" cx="0" cy="0" r="1" gradientUnits="userSpaceOnUse" gradientTransform="translate(13.9998 0.964844) rotate(90) scale(26.6667)">
<stop stop-color="#66BB6A"/>
<stop offset="1" stop-color="#4F8D52"/>
</radialGradient>
<radialGradient id="paint1_radial_15883_826" cx="0" cy="0" r="1" gradientUnits="userSpaceOnUse" gradientTransform="translate(13.9998 0.964844) rotate(90) scale(26.6667)">
<stop stop-color="#66BB6A"/>
<stop offset="1" stop-color="#4F8D52"/>
</radialGradient>
<radialGradient id="paint2_radial_15883_826" cx="0" cy="0" r="1" gradientUnits="userSpaceOnUse" gradientTransform="translate(13.9998 0.964844) rotate(90) scale(26.6667)">
<stop stop-color="#66BB6A"/>
<stop offset="1" stop-color="#4F8D52"/>
</radialGradient>
<radialGradient id="paint3_radial_15883_826" cx="0" cy="0" r="1" gradientUnits="userSpaceOnUse" gradientTransform="translate(13.9998 0.964844) rotate(90) scale(26.6667)">
<stop stop-color="#66BB6A"/>
<stop offset="1" stop-color="#4F8D52"/>
</radialGradient>
<radialGradient id="paint4_radial_15883_826" cx="0" cy="0" r="1" gradientUnits="userSpaceOnUse" gradientTransform="translate(13.9998 0.964844) rotate(90) scale(26.6667)">
<stop stop-color="#66BB6A"/>
<stop offset="1" stop-color="#4F8D52"/>
</radialGradient>
</defs>
</svg>
