<svg width="16" height="21" viewBox="0 0 16 21" fill="none" xmlns="http://www.w3.org/2000/svg">
<path d="M12.3673 6.54156C8.79746 4.36965 10.4715 1.30414 10.5434 1.17672C10.6476 0.995391 10.6473 0.772305 10.5425 0.591289C10.4378 0.410273 10.2445 0.298828 10.0354 0.298828C8.19773 0.298828 6.75875 0.820938 5.7584 1.8507C4.04906 3.61027 4.12836 6.34883 4.16219 7.51828C4.16594 7.64781 4.16918 7.75977 4.16918 7.84289C4.16918 8.71117 4.30848 9.51277 4.43141 10.22C4.51062 10.6757 4.57902 11.0693 4.59117 11.3788C4.60418 11.71 4.54371 11.786 4.54113 11.789C4.5325 11.7993 4.46063 11.8375 4.26629 11.8375C4.04465 11.8375 3.88125 11.7651 3.73648 11.6028C3.17102 10.9687 3.13191 9.23738 3.24004 8.29547C3.25938 8.12938 3.20684 7.96297 3.09562 7.83812C2.98445 7.71328 2.82523 7.64187 2.65805 7.64187C1.13676 7.64187 0 10.1297 0 12.3541C0 13.3997 0.210312 14.4241 0.625117 15.3986C1.02613 16.3407 1.59797 17.191 2.3248 17.9258C3.83855 19.4561 5.83438 20.2988 7.94469 20.2988C10.0635 20.2988 12.0588 19.468 13.5631 17.9594C15.0635 16.4547 15.8898 14.4639 15.8898 12.354C15.8897 9.66172 13.7832 7.40293 12.3673 6.54156ZM7.94469 19.127C4.27348 19.127 1.17191 16.0254 1.17191 12.354C1.17191 11.4611 1.38496 10.5239 1.75641 9.7827C1.84316 9.60953 1.93219 9.46098 2.02004 9.33582C2.02984 10.3025 2.18297 11.6203 2.8609 12.3816C3.2266 12.7923 3.71258 13.0093 4.26633 13.0093C4.78363 13.0093 5.17785 12.8525 5.43793 12.5433C5.92418 11.9653 5.77492 11.1065 5.58602 10.0193C5.47121 9.35875 5.34109 8.61004 5.34109 7.84285C5.34109 7.74273 5.33762 7.62301 5.33363 7.4843C5.30156 6.37656 5.2348 4.07152 6.59898 2.66727C7.21137 2.03684 8.06637 1.65316 9.14801 1.52188C9.0259 1.92734 8.92063 2.44207 8.91656 3.0184C8.90758 4.28824 9.39328 6.10391 11.7583 7.54273C12.9025 8.23887 14.7179 10.1606 14.7179 12.354C14.7179 16.0886 11.6794 19.127 7.94469 19.127Z" fill="url(#paint0_linear_15883_46)"/>
<defs>
<linearGradient id="paint0_linear_15883_46" x1="7.94488" y1="0.298828" x2="7.94488" y2="20.2988" gradientUnits="userSpaceOnUse">
<stop stop-color="#FFA726"/>
<stop offset="1" stop-color="#BD7E21"/>
</linearGradient>
</defs>
</svg>
