<svg width="28" height="25" viewBox="0 0 28 25" fill="none" xmlns="http://www.w3.org/2000/svg">
<path d="M14.7824 14.6406C15.2138 14.6406 15.5636 14.2909 15.5636 13.8594C15.5636 13.428 15.2138 13.0782 14.7824 13.0782C14.3509 13.0782 14.0012 13.428 14.0012 13.8594C14.0012 14.2909 14.3509 14.6406 14.7824 14.6406Z" fill="url(#paint0_linear_15883_736)"/>
<path d="M11.6576 17.7656C12.0891 17.7656 12.4388 17.4159 12.4388 16.9844C12.4388 16.553 12.0891 16.2032 11.6576 16.2032C11.2262 16.2032 10.8765 16.553 10.8765 16.9844C10.8765 17.4159 11.2262 17.7656 11.6576 17.7656Z" fill="url(#paint1_linear_15883_736)"/>
<path d="M4.62722 14.6406C5.05866 14.6406 5.40842 14.2909 5.40842 13.8594C5.40842 13.428 5.05866 13.0782 4.62722 13.0782C4.19578 13.0782 3.84602 13.428 3.84602 13.8594C3.84602 14.2909 4.19578 14.6406 4.62722 14.6406Z" fill="url(#paint2_linear_15883_736)"/>
<path d="M7.75195 10.7344C8.18339 10.7344 8.53314 10.3846 8.53314 9.95317C8.53314 9.52173 8.18339 9.17197 7.75195 9.17197C7.3205 9.17197 6.97075 9.52173 6.97075 9.95317C6.97075 10.3846 7.3205 10.7344 7.75195 10.7344Z" fill="url(#paint3_linear_15883_736)"/>
<path d="M14.7824 5.26562C15.2138 5.26562 15.5636 4.91587 15.5636 4.48443C15.5636 4.05298 15.2138 3.70323 14.7824 3.70323C14.3509 3.70323 14.0012 4.05298 14.0012 4.48443C14.0012 4.91587 14.3509 5.26562 14.7824 5.26562Z" fill="url(#paint4_linear_15883_736)"/>
<path d="M18.6883 8.39062C19.1198 8.39062 19.4695 8.04086 19.4695 7.60942C19.4695 7.17798 19.1198 6.82823 18.6883 6.82823C18.2569 6.82823 17.9072 7.17798 17.9072 7.60942C17.9072 8.04086 18.2569 8.39062 18.6883 8.39062Z" fill="url(#paint5_linear_15883_736)"/>
<path d="M12.4389 8.39062C12.8703 8.39062 13.2201 8.04086 13.2201 7.60942C13.2201 7.17798 12.8703 6.82823 12.4389 6.82823C12.0075 6.82823 11.6577 7.17798 11.6577 7.60942C11.6577 8.04086 12.0075 8.39062 12.4389 8.39062Z" fill="url(#paint6_linear_15883_736)"/>
<path d="M15.5636 20.1094C15.9951 20.1094 16.3448 19.7596 16.3448 19.3282C16.3448 18.8967 15.9951 18.547 15.5636 18.547C15.1322 18.547 14.7824 18.8967 14.7824 19.3282C14.7824 19.7596 15.1322 20.1094 15.5636 20.1094Z" fill="url(#paint7_linear_15883_736)"/>
<path d="M17.9071 16.9844C18.3385 16.9844 18.6883 16.6346 18.6883 16.2032C18.6883 15.7717 18.3385 15.422 17.9071 15.422C17.4757 15.422 17.1259 15.7717 17.1259 16.2032C17.1259 16.6346 17.4757 16.9844 17.9071 16.9844Z" fill="url(#paint8_linear_15883_736)"/>
<path d="M21.0318 20.1094C21.4633 20.1094 21.813 19.7596 21.813 19.3282C21.813 18.8967 21.4633 18.547 21.0318 18.547C20.6004 18.547 20.2506 18.8967 20.2506 19.3282C20.2506 19.7596 20.6004 20.1094 21.0318 20.1094Z" fill="url(#paint9_linear_15883_736)"/>
<path d="M22.5941 16.2031C23.0255 16.2031 23.3752 15.8534 23.3752 15.4219C23.3752 14.9905 23.0255 14.6407 22.5941 14.6407C22.1626 14.6407 21.8129 14.9905 21.8129 15.4219C21.8129 15.8534 22.1626 16.2031 22.5941 16.2031Z" fill="url(#paint10_linear_15883_736)"/>
<path d="M22.0209 10.8057C23.2263 8.60988 23.4914 5.86067 22.1605 3.71598C20.1155 0.422343 15.4748 -0.409062 11.8156 1.86281C10.847 2.46401 10.0795 3.18916 9.46919 4.07963C8.96351 4.81739 8.20914 5.36968 7.34513 5.63468C4.42883 6.52937 1.97138 8.6478 1.03623 11.5098C-0.476113 16.1379 2.82097 20.3177 7.83117 20.1097C9.58971 23.1234 13.6948 24.0157 17.178 24.0157C20.0337 24.0157 22.4644 23.464 24.2077 22.4204C26.2524 21.1962 27.3332 19.3165 27.3332 16.9845C27.3331 13.3889 25.3989 11.7047 22.0209 10.8057ZM2.52123 11.9951C3.2944 9.62905 5.36331 7.87702 7.80325 7.12853C9.00377 6.76025 10.0531 5.99124 10.7578 4.96312C11.2432 4.25489 11.8587 3.6751 12.6395 3.19036C15.5669 1.37291 19.2426 1.97838 20.8331 4.54015C21.833 6.15129 21.6591 8.4902 20.4192 10.4469C19.4401 10.2609 18.3876 10.1095 17.2826 9.96019C11.6144 9.19421 7.02278 12.2972 7.02278 16.9844C7.02278 17.5317 7.08455 18.0542 7.20502 18.5499C3.58211 18.4097 1.41342 15.3854 2.52123 11.9951ZM17.178 22.4531C15.1622 22.4531 8.58518 22.0588 8.58518 16.9844C8.58518 13.1689 12.4917 10.8895 17.0734 11.5086C23.1206 12.3259 25.7708 13.0909 25.7708 16.9844C25.7708 21.1671 21.3416 22.4531 17.178 22.4531Z" fill="url(#paint11_linear_15883_736)"/>
<defs>
<linearGradient id="paint0_linear_15883_736" x1="13.9998" y1="0.582031" x2="13.9998" y2="24.0157" gradientUnits="userSpaceOnUse">
<stop stop-color="#FFA726"/>
<stop offset="1" stop-color="#BD7E21"/>
</linearGradient>
<linearGradient id="paint1_linear_15883_736" x1="13.9998" y1="0.582031" x2="13.9998" y2="24.0157" gradientUnits="userSpaceOnUse">
<stop stop-color="#FFA726"/>
<stop offset="1" stop-color="#BD7E21"/>
</linearGradient>
<linearGradient id="paint2_linear_15883_736" x1="13.9998" y1="0.582031" x2="13.9998" y2="24.0157" gradientUnits="userSpaceOnUse">
<stop stop-color="#FFA726"/>
<stop offset="1" stop-color="#BD7E21"/>
</linearGradient>
<linearGradient id="paint3_linear_15883_736" x1="13.9998" y1="0.582031" x2="13.9998" y2="24.0157" gradientUnits="userSpaceOnUse">
<stop stop-color="#FFA726"/>
<stop offset="1" stop-color="#BD7E21"/>
</linearGradient>
<linearGradient id="paint4_linear_15883_736" x1="13.9998" y1="0.582031" x2="13.9998" y2="24.0157" gradientUnits="userSpaceOnUse">
<stop stop-color="#FFA726"/>
<stop offset="1" stop-color="#BD7E21"/>
</linearGradient>
<linearGradient id="paint5_linear_15883_736" x1="13.9998" y1="0.582031" x2="13.9998" y2="24.0157" gradientUnits="userSpaceOnUse">
<stop stop-color="#FFA726"/>
<stop offset="1" stop-color="#BD7E21"/>
</linearGradient>
<linearGradient id="paint6_linear_15883_736" x1="13.9998" y1="0.582031" x2="13.9998" y2="24.0157" gradientUnits="userSpaceOnUse">
<stop stop-color="#FFA726"/>
<stop offset="1" stop-color="#BD7E21"/>
</linearGradient>
<linearGradient id="paint7_linear_15883_736" x1="13.9998" y1="0.582031" x2="13.9998" y2="24.0157" gradientUnits="userSpaceOnUse">
<stop stop-color="#FFA726"/>
<stop offset="1" stop-color="#BD7E21"/>
</linearGradient>
<linearGradient id="paint8_linear_15883_736" x1="13.9998" y1="0.582031" x2="13.9998" y2="24.0157" gradientUnits="userSpaceOnUse">
<stop stop-color="#FFA726"/>
<stop offset="1" stop-color="#BD7E21"/>
</linearGradient>
<linearGradient id="paint9_linear_15883_736" x1="13.9998" y1="0.582031" x2="13.9998" y2="24.0157" gradientUnits="userSpaceOnUse">
<stop stop-color="#FFA726"/>
<stop offset="1" stop-color="#BD7E21"/>
</linearGradient>
<linearGradient id="paint10_linear_15883_736" x1="13.9998" y1="0.582031" x2="13.9998" y2="24.0157" gradientUnits="userSpaceOnUse">
<stop stop-color="#FFA726"/>
<stop offset="1" stop-color="#BD7E21"/>
</linearGradient>
<linearGradient id="paint11_linear_15883_736" x1="13.9998" y1="0.582031" x2="13.9998" y2="24.0157" gradientUnits="userSpaceOnUse">
<stop stop-color="#FFA726"/>
<stop offset="1" stop-color="#BD7E21"/>
</linearGradient>
</defs>
</svg>
