<svg width="28" height="28" viewBox="0 0 28 28" fill="none" xmlns="http://www.w3.org/2000/svg">
<path d="M20.9011 14.4359C19.7414 13.7077 18.4719 13.5363 17.327 13.9531C16.1818 14.3699 15.3197 15.3171 14.8994 16.6204C14.5016 17.8536 14.5507 19.2691 15.0373 20.6062C15.524 21.9432 16.3963 23.0591 17.4937 23.7481C18.2386 24.2158 19.0286 24.4539 19.802 24.4539C20.2327 24.4539 20.6582 24.3801 21.0678 24.231C22.213 23.8142 23.0751 22.8669 23.4954 21.5637C23.8931 20.3304 23.8441 18.915 23.3575 17.5779C22.8709 16.2408 21.9985 15.125 20.9011 14.4359ZM22.0083 21.0841C21.7393 21.9183 21.2155 22.5144 20.5335 22.7627C19.8512 23.0111 19.0669 22.891 18.3246 22.4249C17.52 21.9198 16.874 21.084 16.5056 20.0718C16.1372 19.0595 16.0948 18.0042 16.3865 17.1C16.6555 16.2657 17.1793 15.6696 17.8613 15.4214C18.0937 15.3368 18.3378 15.295 18.5882 15.295C19.0728 15.295 19.5808 15.4518 20.0702 15.7591C20.8748 16.2643 21.5208 17.1 21.8892 18.1123C22.2576 19.1245 22.3 20.1799 22.0083 21.0841Z" fill="url(#paint0_radial_15883_1677)"/>
<path d="M26.7834 16.3311C26.1614 14.6222 25.0706 13.1692 23.6289 12.1293C22.6122 11.396 21.8717 10.4505 21.4875 9.39472L21.4862 9.39103C20.9865 8.01837 19.9823 6.92243 18.6584 6.30504C17.3345 5.68774 15.8493 5.62295 14.4768 6.12248C13.8669 6.34446 13.3118 6.66629 12.8289 7.07134C11.9716 6.10155 10.8067 5.47311 9.52073 5.29113V4.82957C9.52073 3.8642 9.98552 2.94696 10.764 2.37618C11.1119 2.12102 11.1871 1.63211 10.932 1.28415C10.6768 0.936124 10.1879 0.861072 9.84 1.11607C9.13958 1.62972 8.60698 2.32863 8.29016 3.1179C7.99672 2.76519 7.63901 2.43805 7.20505 2.18748C5.42849 1.16191 3.17833 1.88123 3.08328 1.91237C2.70489 2.03649 2.48041 2.42529 2.56213 2.81503C2.58265 2.91279 3.08458 5.22123 4.86119 6.24701C5.00317 6.32899 5.14823 6.39957 5.29489 6.46045C4.06073 7.46441 3.27067 8.99514 3.27067 10.7084C3.27067 11.8318 2.89828 12.9736 2.19369 14.0105C1.19463 15.4808 0.666504 17.2192 0.666504 19.0378C0.666504 23.7764 4.28797 27.6315 8.73943 27.6315C10.6994 27.6315 12.5995 26.8616 14.0641 25.4959C14.6134 25.9857 15.2245 26.4057 15.8873 26.743C17.0475 27.3335 18.2839 27.6315 19.5162 27.6315C20.4017 27.6315 21.2853 27.4776 22.1366 27.1678C26.3195 25.6452 28.4041 20.784 26.7834 16.3311ZM4.33895 3.23998C4.93276 3.16404 5.7625 3.15889 6.4237 3.54066C7.08729 3.92378 7.49687 4.64305 7.72724 5.19451C7.13333 5.27056 6.3038 5.27566 5.64245 4.89389C4.9789 4.51071 4.56932 3.79149 4.33895 3.23998ZM8.73943 26.069C5.14958 26.069 2.22901 22.9148 2.22901 19.0378C2.22901 17.5336 2.66369 16.0988 3.48604 14.8887C4.36734 13.5918 4.83317 12.1462 4.83317 10.7044C4.83317 8.55051 6.58552 6.79816 8.73943 6.79816C9.93896 6.79816 11.0428 7.33316 11.7803 8.25113C11.6351 8.47254 11.5047 8.70592 11.3907 8.95025C10.7734 10.2741 10.7085 11.7592 11.2095 13.1356C11.5938 14.1912 11.6343 15.3916 11.3269 16.6069C10.8909 18.3301 10.9893 20.1443 11.6113 21.8532C11.9454 22.7715 12.4147 23.6142 12.9965 24.3571C11.8151 25.4656 10.326 26.069 8.73943 26.069ZM21.6021 25.6994C19.9777 26.2908 18.1999 26.1668 16.596 25.3505C14.9742 24.525 13.7253 23.0933 13.0795 21.319C12.5651 19.9054 12.4828 18.4086 12.8417 16.9901C13.2263 15.47 13.1696 13.9524 12.6765 12.5975C11.9397 10.5735 12.9871 8.32748 15.0112 7.59082C15.4471 7.43207 15.8989 7.35316 16.3495 7.35316C16.9121 7.35316 17.4728 7.47634 17.9979 7.72118C18.9436 8.16217 19.6609 8.94493 20.018 9.92603L20.0191 9.92926C20.5109 11.2804 21.4431 12.4794 22.7148 13.3966C23.9014 14.2526 24.8005 15.4521 25.315 16.8656C26.6411 20.5087 24.9755 24.4717 21.6021 25.6994Z" fill="url(#paint1_radial_15883_1677)"/>
<defs>
<radialGradient id="paint0_radial_15883_1677" cx="0" cy="0" r="1" gradientUnits="userSpaceOnUse" gradientTransform="translate(13.9999 0.964844) rotate(90) scale(26.6667 26.6667)">
<stop stop-color="#66BB6A"/>
<stop offset="1" stop-color="#4F8D52"/>
</radialGradient>
<radialGradient id="paint1_radial_15883_1677" cx="0" cy="0" r="1" gradientUnits="userSpaceOnUse" gradientTransform="translate(13.9999 0.964844) rotate(90) scale(26.6667 26.6667)">
<stop stop-color="#66BB6A"/>
<stop offset="1" stop-color="#4F8D52"/>
</radialGradient>
</defs>
</svg>
