<svg width="28" height="28" viewBox="0 0 28 28" fill="none" xmlns="http://www.w3.org/2000/svg">
<path d="M11.4403 9.5093C7.49408 9.5093 4.28361 12.7276 4.28361 16.6835C4.28361 20.6394 7.49413 23.8577 11.4403 23.8577C15.3865 23.8577 18.597 20.6394 18.597 16.6835C18.597 12.7276 15.3865 9.5093 11.4403 9.5093ZM11.4403 22.2952C8.35564 22.2952 5.84611 19.7778 5.84611 16.6835C5.84611 13.5892 8.35569 11.0718 11.4403 11.0718C14.525 11.0718 17.0345 13.5892 17.0345 16.6835C17.0345 19.7778 14.525 22.2952 11.4403 22.2952Z" fill="url(#paint0_linear_15883_759)"/>
<path d="M11.4403 13.0293C10.2047 13.0293 9.19956 14.0341 9.19956 15.2693V19.556C9.19956 19.9875 9.54936 20.3373 9.98081 20.3373C10.4123 20.3373 10.7621 19.9875 10.7621 19.556V18.1053H12.1185V19.556C12.1185 19.9875 12.4683 20.3373 12.8998 20.3373C13.3312 20.3373 13.681 19.9875 13.681 19.556V15.2693C13.681 14.0342 12.6758 13.0293 11.4403 13.0293ZM10.762 16.5428V15.2693C10.762 14.8957 11.0663 14.5918 11.4402 14.5918C11.8142 14.5918 12.1185 14.8957 12.1185 15.2693V16.5428H10.762Z" fill="url(#paint1_linear_15883_759)"/>
<path d="M27.2553 10.654C26.5798 6.0768 20.7916 1.33863 20.5455 1.1392C20.2594 0.907377 19.8504 0.9067 19.5637 1.13753C19.4768 1.20743 17.6142 2.71665 15.8639 4.89982C13.7793 2.67196 11.9808 1.20706 11.897 1.1392C11.6109 0.907221 11.2016 0.9067 10.9149 1.13779C10.8256 1.20972 8.70237 2.9293 6.39201 5.54862C3.25326 9.10695 1.3818 12.4635 0.829514 15.5249C-0.37762 22.0966 5.31633 27.5725 11.405 27.6315C16.6783 27.6149 21.4593 23.5514 22.1127 18.5096C23.5875 18.0684 24.9373 17.1566 25.8776 15.9513C27.0485 14.4502 27.5378 12.569 27.2553 10.654ZM18.5376 22.7261C16.7575 24.7881 14.0245 26.069 11.405 26.069C5.97784 26.001 1.3568 21.0967 2.36717 15.8023C3.398 10.0884 9.60143 4.33852 11.4047 2.7704C13.2584 4.38065 19.7502 10.3611 20.5494 15.7776C20.9312 18.2152 20.2246 20.8143 18.5376 22.7261ZM22.2055 16.8229C22.1942 16.4012 22.1582 15.9764 22.0952 15.5495C21.6797 12.7335 19.9406 9.54836 16.9252 6.07675C18.0956 4.58196 19.3731 3.3781 20.053 2.77519C21.4256 3.9906 25.2277 7.61711 25.7095 10.8821C26.1367 13.7776 24.3493 15.9501 22.2055 16.8229Z" fill="url(#paint2_linear_15883_759)"/>
<defs>
<linearGradient id="paint0_linear_15883_759" x1="13.9999" y1="0.964844" x2="13.9999" y2="27.6315" gradientUnits="userSpaceOnUse">
<stop stop-color="#FFA726"/>
<stop offset="1" stop-color="#BD7E21"/>
</linearGradient>
<linearGradient id="paint1_linear_15883_759" x1="13.9999" y1="0.964844" x2="13.9999" y2="27.6315" gradientUnits="userSpaceOnUse">
<stop stop-color="#FFA726"/>
<stop offset="1" stop-color="#BD7E21"/>
</linearGradient>
<linearGradient id="paint2_linear_15883_759" x1="13.9999" y1="0.964844" x2="13.9999" y2="27.6315" gradientUnits="userSpaceOnUse">
<stop stop-color="#FFA726"/>
<stop offset="1" stop-color="#BD7E21"/>
</linearGradient>
</defs>
</svg>
