<svg width="144" height="145" viewBox="0 0 144 145" fill="none" xmlns="http://www.w3.org/2000/svg">
<path fill-rule="evenodd" clip-rule="evenodd" d="M69.722 2.68972C69.6801 1.39018 70.6998 0.298828 72 0.298828C73.3002 0.298828 74.3199 1.39019 74.278 2.68973L73.632 22.7437C73.6039 23.6166 72.8733 24.2988 72 24.2988C71.1267 24.2988 70.3962 23.6166 70.368 22.7438L69.722 2.68972ZM56.1877 4.46277C55.8929 3.19383 56.6766 1.92333 57.9545 1.67038C59.2325 1.41744 60.4518 2.29179 60.6625 3.57737L63.9091 23.385C64.0492 24.2403 63.4647 25.0454 62.6145 25.2136C61.7643 25.3819 60.9256 24.8583 60.7295 24.0141L56.1877 4.46277ZM83.3375 3.57737C83.5482 2.29179 84.7675 1.41744 86.0455 1.67038C87.3234 1.92333 88.1071 3.19383 87.8123 4.46277L83.2705 24.0141C83.0744 24.8583 82.2357 25.3819 81.3855 25.2136C80.5353 25.0454 79.9508 24.2403 80.0909 23.385L83.3375 3.57737ZM43.2468 8.85487C42.7083 7.66836 43.229 6.26759 44.4325 5.76842C45.6361 5.26924 47.0019 5.8879 47.461 7.10729L54.5347 25.8916C54.84 26.7024 54.4273 27.6054 53.627 27.9373C52.8268 28.2692 51.8998 27.9217 51.5418 27.1328L43.2468 8.85487ZM96.539 7.10729C96.9981 5.8879 98.3639 5.26924 99.5675 5.76842C100.771 6.2676 101.292 7.66836 100.753 8.85487L92.4582 27.1328C92.1002 27.9217 91.1732 28.2692 90.373 27.9374C89.5727 27.6055 89.16 26.7024 89.4653 25.8917L96.539 7.10729ZM31.4251 15.6894C30.6663 14.6325 30.9046 13.1581 31.9857 12.4343C33.0668 11.7105 34.5236 12.0501 35.2117 13.1544L45.8273 30.19C46.2864 30.9267 46.0592 31.8943 45.3379 32.3772C44.6166 32.8601 43.6366 32.7007 43.1304 31.9956L31.4251 15.6894ZM108.788 13.1544C109.476 12.0501 110.933 11.7105 112.014 12.4343C113.095 13.1581 113.334 14.6325 112.575 15.6894L100.87 31.9956C100.363 32.7007 99.3834 32.8601 98.6621 32.3772C97.9408 31.8943 97.7136 30.9267 98.1727 30.19L108.788 13.1544ZM21.1689 24.6879C20.2202 23.799 20.169 22.3064 21.0883 21.3871C22.0076 20.4678 23.5002 20.519 24.3891 21.4677L38.1135 36.1153C38.7077 36.7494 38.6733 37.7433 38.0589 38.3577C37.4444 38.9721 36.4506 39.0065 35.8165 38.4124L21.1689 24.6879ZM119.611 21.4677C120.5 20.519 121.992 20.4678 122.912 21.3871C123.831 22.3064 123.78 23.799 122.831 24.6879L108.184 38.4124C107.549 39.0065 106.556 38.9721 105.941 38.3577C105.327 37.7433 105.292 36.7494 105.886 36.1153L119.611 21.4677ZM12.8555 35.5105C11.7513 34.8224 11.4116 33.3657 12.1355 32.2845C12.8593 31.2034 14.3337 30.9652 15.3906 31.7239L31.6967 43.4292C32.4019 43.9354 32.5613 44.9154 32.0784 45.6367C31.5955 46.358 30.6279 46.5852 29.8912 46.1262L12.8555 35.5105ZM128.609 31.7239C129.666 30.9652 131.141 31.2034 131.865 32.2845C132.588 33.3657 132.249 34.8224 131.144 35.5105L114.109 46.1262C113.372 46.5852 112.405 46.358 111.922 45.6367C111.439 44.9154 111.598 43.9354 112.303 43.4292L128.609 31.7239ZM6.80846 47.7599C5.58907 47.3007 4.97042 45.9349 5.46959 44.7314C5.96877 43.5278 7.36954 43.0071 8.55605 43.5456L26.834 51.8406C27.6229 52.1986 27.9704 53.1256 27.6385 53.9258C27.3066 54.7261 26.4036 55.1389 25.5928 54.8335L6.80846 47.7599ZM135.444 43.5456C136.63 43.0071 138.031 43.5278 138.53 44.7314C139.03 45.9349 138.411 47.3007 137.192 47.7599L118.407 54.8335C117.596 55.1389 116.693 54.7261 116.361 53.9258C116.03 53.1256 116.377 52.1986 117.166 51.8406L135.444 43.5456ZM3.27854 60.9613C1.99296 60.7506 1.11861 59.5313 1.37156 58.2534C1.6245 56.9754 2.895 56.1917 4.16394 56.4865L23.7152 61.0283C24.5595 61.2244 25.0831 62.0631 24.9148 62.9133C24.7465 63.7635 23.9414 64.3481 23.0861 64.2079L3.27854 60.9613ZM139.836 56.4865C141.105 56.1917 142.376 56.9754 142.628 58.2534C142.881 59.5313 142.007 60.7506 140.721 60.9613L120.914 64.2079C120.059 64.3481 119.253 63.7635 119.085 62.9133C118.917 62.0631 119.441 61.2244 120.285 61.0283L139.836 56.4865ZM0 72.2988C0 70.9986 1.09136 69.9789 2.3909 70.0208L22.4449 70.6669C23.3178 70.695 24 71.4255 24 72.2988C24 73.1722 23.3178 73.9027 22.4449 73.9308L2.39089 74.5769C1.09135 74.6187 0 73.599 0 72.2988ZM141.609 70.0208C142.909 69.9789 144 70.9986 144 72.2988C144 73.599 142.909 74.6187 141.609 74.5769L121.555 73.9308C120.682 73.9027 120 73.1722 120 72.2988C120 71.4255 120.682 70.695 121.555 70.6669L141.609 70.0208ZM4.16394 88.1112C2.89499 88.4059 1.6245 87.6222 1.37155 86.3443C1.11861 85.0663 1.99296 83.847 3.27854 83.6363L23.0861 80.3898C23.9414 80.2496 24.7465 80.8341 24.9148 81.6843C25.0831 82.5345 24.5595 83.3733 23.7152 83.5694L4.16394 88.1112ZM140.721 83.6363C142.007 83.847 142.881 85.0664 142.628 86.3443C142.376 87.6222 141.105 88.406 139.836 88.1112L120.285 83.5694C119.441 83.3733 118.917 82.5345 119.085 81.6843C119.253 80.8341 120.059 80.2496 120.914 80.3898L140.721 83.6363ZM8.55605 101.052C7.36954 101.591 5.96877 101.07 5.46959 99.8663C4.97041 98.6627 5.58907 97.297 6.80846 96.8378L25.5928 89.7641C26.4036 89.4588 27.3066 89.8716 27.6385 90.6718C27.9704 91.4721 27.6229 92.399 26.8339 92.757L8.55605 101.052ZM137.192 96.8378C138.411 97.297 139.03 98.6627 138.53 99.8663C138.031 101.07 136.63 101.591 135.444 101.052L117.166 92.757C116.377 92.399 116.03 91.4721 116.361 90.6718C116.693 89.8716 117.596 89.4588 118.407 89.7641L137.192 96.8378ZM15.3906 112.874C14.3337 113.632 12.8593 113.394 12.1355 112.313C11.4116 111.232 11.7513 109.775 12.8555 109.087L29.8912 98.4715C30.6279 98.0124 31.5955 98.2397 32.0784 98.961C32.5613 99.6823 32.4019 100.662 31.6967 101.168L15.3906 112.874ZM131.144 109.087C132.249 109.775 132.588 111.232 131.865 112.313C131.141 113.394 129.666 113.632 128.609 112.874L112.303 101.168C111.598 100.662 111.439 99.6823 111.922 98.961C112.405 98.2397 113.372 98.0124 114.109 98.4715L131.144 109.087ZM24.3891 123.13C23.5002 124.079 22.0076 124.13 21.0883 123.211C20.169 122.291 20.2202 120.799 21.1689 119.91L35.8165 106.185C36.4506 105.591 37.4444 105.626 38.0589 106.24C38.6733 106.854 38.7077 107.848 38.1135 108.482L24.3891 123.13ZM122.831 119.91C123.78 120.799 123.831 122.291 122.912 123.211C121.992 124.13 120.5 124.079 119.611 123.13L105.886 108.482C105.292 107.848 105.327 106.854 105.941 106.24C106.556 105.626 107.549 105.591 108.184 106.185L122.831 119.91ZM35.2117 131.443C34.5236 132.548 33.0668 132.887 31.9857 132.163C30.9046 131.439 30.6663 129.965 31.4251 128.908L43.1304 112.602C43.6366 111.897 44.6166 111.738 45.3379 112.22C46.0592 112.703 46.2864 113.671 45.8273 114.408L35.2117 131.443ZM112.575 128.908C113.334 129.965 113.095 131.439 112.014 132.163C110.933 132.887 109.476 132.548 108.788 131.443L98.1727 114.408C97.7136 113.671 97.9408 112.703 98.6621 112.22C99.3834 111.738 100.363 111.897 100.87 112.602L112.575 128.908ZM47.461 137.49C47.0019 138.71 45.6361 139.328 44.4325 138.829C43.229 138.33 42.7083 136.929 43.2468 135.743L51.5418 117.465C51.8998 116.676 52.8268 116.328 53.627 116.66C54.4273 116.992 54.84 117.895 54.5347 118.706L47.461 137.49ZM100.753 135.743C101.292 136.929 100.771 138.33 99.5675 138.829C98.3639 139.328 96.9981 138.71 96.5389 137.49L89.4653 118.706C89.16 117.895 89.5727 116.992 90.373 116.66C91.1732 116.328 92.1002 116.676 92.4582 117.465L100.753 135.743ZM60.6625 141.02C60.4518 142.306 59.2325 143.18 57.9545 142.927C56.6766 142.674 55.8929 141.404 56.1876 140.135L60.7295 120.584C60.9256 119.739 61.7643 119.216 62.6145 119.384C63.4647 119.552 64.0492 120.357 63.9091 121.213L60.6625 141.02ZM87.8123 140.135C88.1071 141.404 87.3234 142.674 86.0455 142.927C84.7675 143.18 83.5482 142.306 83.3375 141.02L80.0909 121.213C79.9508 120.357 80.5353 119.552 81.3855 119.384C82.2357 119.216 83.0744 119.739 83.2705 120.584L87.8123 140.135ZM72 144.299C70.6998 144.299 69.6801 143.207 69.722 141.908L70.368 121.854C70.3961 120.981 71.1267 120.299 72 120.299C72.8733 120.299 73.6038 120.981 73.632 121.854L74.278 141.908C74.3199 143.207 73.3002 144.299 72 144.299Z" fill="url(#paint0_angular_15046_12166)"/>
<defs>
<radialGradient id="paint0_angular_15046_12166" cx="0" cy="0" r="1" gradientUnits="userSpaceOnUse" gradientTransform="translate(72 72.2988) scale(60)">
<stop offset="0.02" stop-color="#FFA726" stop-opacity="0.1"/>
<stop offset="1" stop-color="#66BB6A"/>
</radialGradient>
</defs>
</svg>
