<svg width="90" height="24" viewBox="0 0 90 24" fill="none" xmlns="http://www.w3.org/2000/svg">
<g clip-path="url(#clip0_15883_477)">
<path d="M85.4632 18.8985C85.274 18.8985 85.066 18.8716 84.8417 18.8204C84.6174 18.7503 84.4013 18.656 84.1932 18.5348C83.9852 18.3974 83.796 18.225 83.6231 18.0175L78.9054 11.5516L81.8587 8.86013C82.1532 8.61766 82.4369 8.42099 82.7152 8.26472C83.0097 8.0923 83.3043 7.96298 83.5961 7.87677C83.8906 7.79055 84.1743 7.74745 84.4526 7.74745H84.4796V6.63477H78.6433V7.74745H78.8756C79.135 7.74745 79.3944 7.76361 79.6538 7.79864C79.9294 7.83366 80.1645 7.88485 80.3536 7.9549C80.5428 8.02495 80.6401 8.12732 80.6401 8.26472L75.6089 12.8421V13.1788L79.5782 18.6372C79.5782 18.6884 79.4998 18.7396 79.3458 18.7934C79.208 18.8285 79.0351 18.8527 78.827 18.8716C78.6189 18.8877 78.4379 18.8985 78.2812 18.8985H78.2299V20.0112H85.5199V18.8985H85.4686H85.4632Z" fill="#FFA726"/>
<path d="M75.8927 18.8708C75.6846 18.8547 75.5036 18.8197 75.3469 18.7685C75.2091 18.7173 75.1388 18.6472 75.1388 18.561V6.63672H69.5889V7.77365L69.8483 7.82484C70.1779 7.87603 70.4373 7.93799 70.6264 8.00535C70.8345 8.07539 70.9804 8.16969 71.0669 8.29093C71.1696 8.3933 71.2236 8.54956 71.2236 8.75701V18.0949C71.2236 18.3024 71.1533 18.4667 71.0155 18.5853C70.8777 18.7065 70.6859 18.7927 70.4454 18.8439C70.2022 18.8789 69.9347 18.8951 69.6402 18.8951H69.6132V20.0078H76.5898V18.8951H76.5628C76.3385 18.8951 76.1143 18.887 75.8873 18.8681L75.8927 18.8708Z" fill="#FFA726"/>
<path d="M69.4838 18.8702C69.1893 18.854 68.9299 18.819 68.7056 18.7678C68.4814 18.7166 68.3084 18.6385 68.1868 18.5361C68.0653 18.4149 68.0058 18.2505 68.0058 18.0458V10.8308C68.0058 10.0549 67.868 9.39217 67.5897 8.83987C67.3141 8.27141 66.925 7.80532 66.4224 7.44431C65.9198 7.08329 65.3254 6.81388 64.6337 6.64145C63.942 6.46903 63.1908 6.38281 62.3775 6.38281C61.4264 6.38281 60.5888 6.48519 59.8619 6.69264C59.154 6.88123 58.5568 7.10754 58.0732 7.36618C57.5895 7.60865 57.2166 7.82418 56.9572 8.01277V10.7015H60.0429V8.23908C60.0781 8.21483 60.1105 8.19059 60.1456 8.16634C60.6293 7.87268 61.2264 7.72719 61.9344 7.72719C62.4369 7.72719 62.8503 7.8134 63.18 7.98583C63.5096 8.14209 63.7501 8.40073 63.9068 8.76174C64.0636 9.12276 64.1392 9.60771 64.1392 10.2112V12.1052C62.9854 12.2587 61.9452 12.4393 61.0265 12.6413C59.9376 12.8838 59.0216 13.1936 58.2758 13.5735C57.5328 13.9345 56.9707 14.3763 56.5898 14.8936C56.2277 15.4109 56.0439 16.0306 56.0439 16.7553C56.0439 17.48 56.2169 18.1347 56.5627 18.6681C56.9248 19.1854 57.4193 19.5814 58.0407 19.8589C58.6811 20.1337 59.4161 20.2738 60.2456 20.2738C61.0751 20.2738 61.7425 20.1445 62.3478 19.8859C62.953 19.6111 63.4637 19.2231 63.8771 18.722C64.0825 18.4849 64.2635 18.2236 64.4229 17.9434V20.0152H69.5838V18.8783H69.4811L69.4838 18.8702ZM63.8312 17.3722C63.5556 17.7871 63.2259 18.1131 62.8449 18.3556C62.4829 18.5792 62.0668 18.6924 61.5993 18.6924C61.2372 18.6924 60.9076 18.6142 60.6131 18.4607C60.3375 18.2882 60.1213 18.0458 59.9646 17.7359C59.8268 17.4261 59.7565 17.0382 59.7565 16.5721C59.7565 16.176 59.816 15.8123 59.9376 15.4863C60.0592 15.1603 60.2483 14.8748 60.5077 14.6323C60.7671 14.3737 61.0967 14.15 61.4939 13.9588C61.8911 13.7702 62.3667 13.6139 62.9206 13.4927C63.2935 13.3984 63.7015 13.3229 64.1392 13.261V16.8765C64.0419 17.0489 63.9393 17.216 63.8285 17.3722H63.8312Z" fill="#FFA726"/>
<path d="M55.6599 6.48283C55.5032 6.44781 55.3222 6.43164 55.1141 6.43164C54.4224 6.43164 53.8172 6.63101 53.2984 7.02705C52.7796 7.40692 52.3391 7.94036 51.9744 8.63006C51.7285 9.08268 51.5069 9.58918 51.2989 10.1361V6.63909H46.0083V7.77602L46.2677 7.82721C46.5784 7.89726 46.8378 7.96461 47.0459 8.03466C47.2539 8.10471 47.3998 8.199 47.4863 8.32024C47.589 8.42262 47.643 8.57888 47.643 8.78632V18.0973C47.643 18.426 47.4863 18.6415 47.1756 18.7439C46.8811 18.8463 46.5109 18.9002 46.0596 18.9002H46.0083V20.0128H53.6604V18.9002H53.2713C53.0282 18.9002 52.7688 18.8921 52.4932 18.8732C52.2338 18.857 52.0095 18.822 51.8177 18.7708C51.6447 18.7008 51.5583 18.6146 51.5583 18.5122V11.1922C51.6096 11.1195 51.6609 11.0494 51.715 10.9847C51.9392 10.6911 52.1905 10.4513 52.4661 10.26C52.7607 10.0714 53.0714 9.93134 53.401 9.84513C53.7307 9.75891 54.0928 9.71581 54.49 9.71581C54.6791 9.71581 54.8709 9.72389 55.0601 9.74275C55.2492 9.75891 55.4222 9.78585 55.5789 9.82088C55.7518 9.8559 55.9085 9.89092 56.0463 9.92325V6.56096C55.9599 6.52594 55.8302 6.50169 55.6572 6.48283H55.6599Z" fill="#FFA726"/>
<path d="M35.7219 18.8708C35.4112 18.8547 35.1437 18.8197 34.9167 18.7685C34.6897 18.7173 34.5195 18.6391 34.3979 18.5368C34.2763 18.4155 34.2169 18.2512 34.2169 18.0464V6.63672H28.3021V7.77365L28.7696 7.85178C29.2533 7.90297 29.6261 7.99726 29.8855 8.13736C30.1611 8.2586 30.3016 8.47413 30.3016 8.78395V16.2225C30.1017 16.5539 29.8963 16.8529 29.6802 17.1116C29.3181 17.5265 28.9371 17.8444 28.5399 18.068C28.1589 18.2916 27.7455 18.4048 27.2943 18.4048C26.8971 18.4048 26.5674 18.3266 26.3081 18.1731C26.0649 18.0006 25.8838 17.742 25.7622 17.3971C25.6407 17.0523 25.5812 16.5943 25.5812 16.0258V6.63672H20.0312V7.77365L20.3177 7.82484C20.8013 7.91105 21.1472 8.01343 21.3552 8.13466C21.5633 8.2559 21.666 8.47143 21.666 8.78126V15.8938C21.666 16.8421 21.8389 17.645 22.1848 18.2997C22.5306 18.9544 23.0224 19.4474 23.6628 19.7734C24.3032 20.1021 25.0462 20.2637 25.8946 20.2637C26.6728 20.2637 27.3727 20.1344 27.9968 19.8758C28.6183 19.601 29.1803 19.2022 29.6829 18.6849C29.999 18.3482 30.2908 17.9629 30.5637 17.5399V20.0051H35.8543V18.8681H35.7246L35.7219 18.8708Z" fill="#FFA726"/>
<path d="M20.0044 18.8971C19.6936 18.8971 19.4153 18.881 19.1749 18.8459C18.9506 18.7947 18.7696 18.7085 18.629 18.5873C18.4885 18.4661 18.421 18.3017 18.421 18.097V10.7527C18.421 9.78821 18.2481 8.98536 17.9022 8.34685C17.5563 7.69217 17.0646 7.19914 16.4242 6.87315C15.7838 6.54446 15.0326 6.38281 14.168 6.38281C13.3898 6.38281 12.6819 6.52021 12.0415 6.79771C11.42 7.07251 10.858 7.46047 10.3554 7.96158C10.0339 8.28219 9.73128 8.65937 9.44756 9.07965V6.64145H4.1543V7.77838L4.41369 7.82957C4.72442 7.89962 4.98382 7.96697 5.19187 8.03702C5.39993 8.10707 5.54584 8.20136 5.6323 8.3226C5.73498 8.42498 5.78902 8.58124 5.78902 8.78869V18.0997C5.78902 18.3071 5.71066 18.4714 5.55665 18.59C5.41884 18.7112 5.227 18.7974 4.98652 18.8486C4.76225 18.8837 4.50286 18.8998 4.20834 18.8998H4.157V20.0125H11.1606V18.8998H11.1093C10.9013 18.8998 10.6851 18.8917 10.4608 18.8729C10.2528 18.8567 10.0717 18.8298 9.91501 18.7947C9.77721 18.7597 9.70696 18.7166 9.70696 18.6654V10.4402C9.8907 10.1358 10.0825 9.85557 10.2771 9.6131C10.6392 9.16587 11.0282 8.8291 11.4444 8.60548C11.8605 8.38187 12.3009 8.26872 12.7684 8.26872C13.1845 8.26872 13.5114 8.34685 13.7546 8.50041C14.014 8.65667 14.2031 8.90453 14.3247 9.24939C14.4463 9.59424 14.5058 10.0415 14.5058 10.5938V18.6627C14.5058 18.7139 14.4274 18.757 14.2734 18.7921C14.1167 18.8271 13.9275 18.8513 13.7033 18.8702C13.479 18.889 13.2709 18.8971 13.0818 18.8971H13.0548V20.0098H20.0314V18.8971H20.0044Z" fill="#FFA726"/>
<path d="M44.5683 18.6384C44.2738 18.7246 43.9549 18.7677 43.6091 18.7677C43.193 18.7677 42.839 18.6896 42.5445 18.536C42.25 18.3636 42.0257 18.078 41.869 17.682C41.7123 17.2859 41.6366 16.7498 41.6366 16.079V7.93186H44.9817V6.63867H35.8516V7.93186H37.7187V15.8203C37.7187 16.9249 37.9348 17.8032 38.3671 18.4579C38.7995 19.1126 39.3885 19.5787 40.1316 19.8535C40.8746 20.1283 41.715 20.2684 42.6472 20.2684C43.0444 20.2684 43.4091 20.2414 43.7361 20.1902C44.0657 20.1552 44.3494 20.104 44.5926 20.034C44.852 19.9639 45.0601 19.8885 45.2141 19.8023V18.4579C45.0925 18.4929 44.8763 18.5522 44.5656 18.6384H44.5683Z" fill="#FFA726"/>
<path d="M41.6366 6.63926C38.4536 6.61502 35.8759 4.04749 35.8516 0.871094C39.0345 0.895341 41.6123 3.46286 41.6366 6.63926Z" fill="#66BB6A"/>
<path d="M1.5061 7.44804V3.99953H4.96469V2.92188H0.425293V7.44804H1.5061Z" fill="#565656"/>
<path d="M88.1627 19.2012V22.6497H84.7041V23.7273H89.2435V19.2012H88.1627Z" fill="#565656"/>
</g>
<defs>
<clipPath id="clip0_15883_477">
<rect width="88.8183" height="22.8571" fill="white" transform="translate(0.425293 0.871094)"/>
</clipPath>
</defs>
</svg>
