<svg width="28" height="25" viewBox="0 0 28 25" fill="none" xmlns="http://www.w3.org/2000/svg">
<path d="M26.5507 19.1089H25.9636C25.8898 17.5448 25.5498 16.0941 24.9496 14.7884C24.2898 13.3527 23.2942 12.0429 21.9856 10.8856C22.4759 10.3608 22.7454 9.68072 22.7454 8.95891C22.7454 8.65387 22.6965 8.35654 22.6041 8.07491L24.3744 6.30465L25.3417 6.272C26.3574 6.23779 27.208 5.45026 27.3202 4.44025C27.3823 3.88169 27.2195 3.33522 26.862 2.90166C26.5044 2.46811 25.999 2.20431 25.4389 2.15894L25.4344 2.15857C25.4341 2.1556 25.434 2.15404 25.434 2.15404C25.3886 1.59391 25.1248 1.08843 24.6912 0.730916C24.2577 0.373453 23.7113 0.210629 23.1527 0.272692C22.1426 0.384927 21.3551 1.2355 21.3209 2.25125L21.2883 3.21855L19.5166 4.99021C18.5362 4.66947 17.4139 4.89733 16.636 5.67526C16.1754 6.13588 15.5594 6.43456 14.9014 6.51624C13.755 6.65856 12.7092 7.1414 11.8608 7.91651C9.06911 8.42037 6.53188 9.85653 4.69414 11.9792C2.95465 13.9884 1.93728 16.4985 1.79084 19.1089H1.44881C1.01677 19.1089 0.666504 19.4592 0.666504 19.8912C0.666504 20.3233 1.01677 20.6736 1.44881 20.6736H1.96107L2.49392 22.5413C2.796 23.6001 3.77586 24.3394 4.87673 24.3394H23.1235C24.2237 24.3394 25.2034 23.6007 25.5059 22.5428L26.0405 20.6736H26.5506C26.9827 20.6736 27.3329 20.3233 27.3329 19.8913C27.3329 19.4593 26.9827 19.1089 26.5507 19.1089ZM22.6129 4.10657C22.7532 3.96633 22.835 3.778 22.8416 3.57971L22.8846 2.30388C22.8929 2.05943 23.0824 1.85478 23.3255 1.82771C23.4597 1.81285 23.5914 1.85191 23.6957 1.93796C23.8001 2.02402 23.8635 2.14564 23.8745 2.28046L23.9263 2.91913C23.9638 3.38116 24.3061 3.63588 24.6451 3.66415L25.3124 3.71839C25.4472 3.72929 25.5688 3.79276 25.6549 3.89712C25.7409 4.00148 25.7801 4.13296 25.7652 4.26747C25.7382 4.5105 25.5335 4.70003 25.289 4.70827L24.0132 4.7513C23.8149 4.75797 23.6266 4.8397 23.4864 4.97999L21.7116 6.75479L20.8381 5.88137L22.6129 4.10657ZM15.0942 8.06891C16.0962 7.94452 17.0367 7.48734 17.7425 6.78149C17.9883 6.53569 18.3111 6.41282 18.634 6.41282C18.9569 6.41282 19.2797 6.53569 19.5255 6.78149L20.8114 8.0674C21.0496 8.30553 21.1807 8.62221 21.1807 8.95897C21.1807 9.29572 21.0496 9.61235 20.8114 9.85054C20.604 10.058 20.4187 10.2864 20.2563 10.5307C20.2435 10.5484 20.2313 10.5663 20.2202 10.5847C19.8511 11.1574 19.6098 11.8155 19.5234 12.5039C19.4165 13.3563 19.0448 14.1348 18.4486 14.755C17.7145 15.5187 16.7213 15.9491 15.652 15.9671C14.5829 15.9847 13.5789 15.5891 12.821 14.8521C12.053 14.1051 11.6259 13.1044 11.6185 12.0342C11.611 10.9638 12.0238 9.9574 12.7806 9.20049C13.4114 8.56974 14.2114 8.17843 15.0942 8.06891ZM4.86906 14.3795C5.17218 15.2644 5.71275 16.3399 6.67609 17.3032C6.82884 17.456 7.02906 17.5324 7.22923 17.5324C7.4294 17.5324 7.62967 17.456 7.78237 17.3032C8.08789 16.9977 8.08789 16.5024 7.78237 16.1969C6.52489 14.9394 6.17473 13.4077 6.08054 12.7758C7.27935 11.4695 8.79119 10.4822 10.4687 9.89591C10.1915 10.5679 10.0487 11.2952 10.0539 12.0451C10.0643 13.5373 10.6596 14.9325 11.7302 15.9737C12.7659 16.981 14.1303 17.5324 15.5818 17.5324C15.6139 17.5324 15.6462 17.5321 15.6785 17.5315C17.1674 17.5065 18.5518 16.9054 19.5767 15.8392C20.4083 14.9741 20.9268 13.8881 21.076 12.6986C21.0949 12.5475 21.1256 12.399 21.1662 12.2539C23.1897 14.1279 24.2522 16.3833 24.397 19.1089H3.35795C3.46628 17.4365 3.98766 15.8134 4.86906 14.3795ZM24.0016 22.1125C23.8901 22.5024 23.529 22.7747 23.1235 22.7747H4.87678C4.47102 22.7747 4.10986 22.5022 3.99851 22.112L3.58811 20.6735H24.4132L24.0016 22.1125Z" fill="url(#paint0_radial_15883_724)"/>
<defs>
<radialGradient id="paint0_radial_15883_724" cx="0" cy="0" r="1" gradientUnits="userSpaceOnUse" gradientTransform="translate(13.9998 0.259766) rotate(90) scale(24.0797 26.6667)">
<stop stop-color="#A883FF"/>
<stop offset="1" stop-color="#7E4CE3"/>
</radialGradient>
</defs>
</svg>
