<svg width="28" height="25" viewBox="0 0 28 25" fill="none" xmlns="http://www.w3.org/2000/svg">
<path fill-rule="evenodd" clip-rule="evenodd" d="M22.2049 22.2416C23.149 22.2416 23.9144 21.4742 23.9144 20.5274V17.7846C23.9144 17.2164 24.3736 16.756 24.94 16.756C25.5065 16.756 25.9657 17.2164 25.9657 17.7846V20.5274C25.9657 22.6103 24.282 24.2988 22.2049 24.2988H19.47C18.9034 24.2988 18.4442 23.8383 18.4442 23.2703C18.4442 22.7022 18.9034 22.2416 19.47 22.2416H22.2049Z" fill="white"/>
<path fill-rule="evenodd" clip-rule="evenodd" d="M22.2049 2.35598C23.149 2.35598 23.9144 3.12348 23.9144 4.07026V6.81311C23.9144 7.38118 24.3736 7.84168 24.94 7.84168C25.5065 7.84168 25.9657 7.38118 25.9657 6.81311V4.07026C25.9657 1.98735 24.282 0.298828 22.2049 0.298828H19.47C18.9034 0.298828 18.4442 0.759335 18.4442 1.3274C18.4442 1.89547 18.9034 2.35598 19.47 2.35598H22.2049Z" fill="white"/>
<path fill-rule="evenodd" clip-rule="evenodd" d="M5.7947 22.2416C4.85064 22.2416 4.0853 21.4742 4.0853 20.5274V17.7846C4.0853 17.2164 3.62612 16.756 3.05966 16.756C2.49322 16.756 2.03402 17.2164 2.03402 17.7846V20.5274C2.03402 22.6103 3.71774 24.2988 5.7947 24.2988H8.52976C9.0962 24.2988 9.5554 23.8383 9.5554 23.2703C9.5554 22.7022 9.0962 22.2416 8.52976 22.2416H5.7947Z" fill="white"/>
<path fill-rule="evenodd" clip-rule="evenodd" d="M5.7947 2.35598C4.85064 2.35598 4.0853 3.12348 4.0853 4.07026V6.81312C4.0853 7.38118 3.62612 7.84168 3.05966 7.84168C2.49322 7.84168 2.03402 7.38118 2.03402 6.81312V4.07026C2.03402 1.98736 3.71774 0.298828 5.7947 0.298828H8.52976C9.0962 0.298828 9.5554 0.759335 9.5554 1.3274C9.5554 1.89547 9.0962 2.35598 8.52976 2.35598H5.7947Z" fill="white"/>
<path fill-rule="evenodd" clip-rule="evenodd" d="M27.3332 12.2988C27.3332 12.8668 26.874 13.3274 26.3076 13.3274H1.69214C1.1257 13.3274 0.666504 12.8668 0.666504 12.2988C0.666504 11.7308 1.1257 11.2703 1.69214 11.2703H26.3076C26.874 11.2703 27.3332 11.7308 27.3332 12.2988Z" fill="white"/>
</svg>
